# xmcd
#
# Track frame offsets:
#	150
#	26065
#	50938
#	71134
#	94410
#	114885
#	139260
#	161881
#	184810
#
# Disc length: 2773 seconds
#
# Revision: 2638897047
# Processed by: cddbd v1.5.2PL0 Copyright (c) Steve Scherf et al.
# Submitted via: EZCDAudioConverter 8.0.2.1
#
DISCID=890ad309
DTITLE=Anh Thơ, Phương Thảo, Tân Nhàn, Thành Lê - Vời Vợi Tình Quê
DYEAR=2011
DGENRE=Contemporary Pop
TTITLE0=Anh Thơ - Trở về dòng sông tuổi thơ
TTITLE1=Phuong Thao - Neo đậu bến quê
TTITLE2=Tân Nhân - Tình đất
TTITLE3=Thành Lê - Làng tôi
TTITLE4=Tân Nhàn, Tuấn Anh - Anh hãy đến quê em
TTITLE5=Anh Thơ - Về quê
TTITLE6=Phuong Thao - Mùa chim én bay
TTITLE7=Thành Lê, Đăng Thuật - Tình thắm duyên quê
TTITLE8=Tân Nhân - Quảng Nam yêu thương
EXTD=
EXTT0=
EXTT1=
EXTT2=
EXTT3=
EXTT4=
EXTT5=
EXTT6=
EXTT7=
EXTT8=
PLAYORDER=
